<?xml version="1.0" encoding="UTF-8"?>
<svg width="218px" height="73px" viewBox="0 0 218 73" version="1.1" xmlns="http://www.w3.org/2000/svg" xmlns:xlink="http://www.w3.org/1999/xlink">
    <!-- Generator: Sketch 52.6 (67491) - http://www.bohemiancoding.com/sketch -->
    <title>logo</title>
    <desc>Created with Sketch.</desc>
    <g id="Page-1" stroke="none" stroke-width="1" fill="none" fill-rule="evenodd">
        <g id="logo" transform="translate(-1.000000, 0.000000)">
            <polygon id="Path" points="1 73 219 73 219 0 1 0"></polygon>
            <g id="Group" transform="translate(1.011000, 0.351000)" fill="#000000">
                <polygon id="Path" points="0 0 0 55.364 217.487 55.407 217.487 0"></polygon>
            </g>
            <g id="Group" transform="translate(0.000000, 14.000000)" fill="#FFF900">
                <g id="Shape" transform="translate(35.837000, 7.492000)" fill-rule="nonzero">
                    <path d="M17,1 C15.7182704,1.03538111 14.6438884,1.97945857 14.444,3.246 C13.0394187,1.75640393 11.0911763,0.899538058 9.044,0.871 C4.383,0.871 0.605,5.464 0.605,11.131 C0.605,16.798 4.383,21.392 9.044,21.392 C11.11457,21.361107 13.0824855,20.4849926 14.491,18.967 C14.7679798,20.1362055 15.7987741,20.9714405 17,21 C18.4917695,20.9441191 19.6571925,19.6919377 19.606,18.2 L19.606,3.8 C19.6583077,2.3076458 18.4922648,1.05479851 17,1 M10.045,16.485 C7.786,16.485 5.955,14.102 5.955,11.163 C5.955,8.224 7.786,5.841 10.045,5.841 C12.304,5.841 14.135,8.224 14.135,11.163 C14.135,14.102 12.304,16.485 10.045,16.485"></path>
                </g>
                <g id="Path" transform="translate(123.916000, 1.428000)">
                    <path d="M11,7 C9.21607156,6.98772021 7.48721361,7.61736382 6.129,8.774 L6.129,2.824 C6.13726692,2.08943057 5.85329698,1.38168168 5.33959685,0.856540978 C4.82589671,0.331400274 4.12457333,0.0319124858 3.39,0.024 C2.65543227,0.031646454 1.95405484,0.331082902 1.44045645,0.856311345 C0.926858067,1.38153979 0.643199073,2.08944519 0.652,2.824 L0.652,24.655 C0.643199073,25.3895548 0.926858067,26.0974602 1.44045645,26.6226887 C1.95405484,27.1479171 2.65543227,27.4473535 3.39,27.455 C4.12457333,27.4470875 4.82589671,27.1475997 5.33959685,26.622459 C5.85329698,26.0973183 6.13726692,25.3895694 6.129,24.655 L6.129,14.9 C6.28038649,13.1554229 7.67382282,11.7776527 9.42,11.646 C11.1496155,11.7775883 12.5338226,13.1343645 12.7,14.861 L12.7,24.655 C12.6737995,26.173227 13.881824,27.4259932 15.4,27.455 C16.1303502,27.442903 16.8259535,27.1410493 17.333665,26.6158952 C17.8413764,26.0907411 18.1195706,25.3853422 18.107,24.655 L18.107,13.55 C17.9446427,9.78268479 14.7680243,6.85502886 11,7"></path>
                </g>
                <g id="Shape" transform="translate(77.309000, 8.362000)" fill-rule="nonzero">
                    <path d="M10,0 C4.68,0 0.367,4.579 0.367,10.228 C0.367,15.877 4.68,20.455 10,20.455 C14.3,20.455 15.7,19.355 18.036,17.888 C18.2526889,17.6802879 18.4489235,17.4522406 18.622,17.207 C18.8393605,16.9127577 18.9802437,16.5691401 19.032,16.207 C19.1213697,15.7782308 19.0565646,15.3316772 18.849,14.946 C18.6780119,14.6097971 18.4196295,14.3258528 18.101,14.124 C17.878512,13.9349293 17.6184586,13.7951889 17.338,13.714 C16.996913,13.6135185 16.634087,13.6135185 16.293,13.714 C15.975848,13.8101088 15.675098,13.9537406 15.401,14.14 C14.977,14.361 14.764,14.54 14.342,14.762 C13.742,15.081 13.366,15.171 12.742,15.481 C12.1725668,15.7025548 11.571239,15.8311937 10.961,15.862 C8.061,15.84 6.229,14.188 5.85,11.976 L17.478,11.976 C18.3931594,12.0125812 19.2131627,11.4145585 19.458,10.532 C19.4961424,10.4367182 19.5141862,10.3345832 19.511,10.232 C19.511,4.579 15.32,0 10,0 Z M5.834,8.389 C6.05198251,6.22405218 7.82619664,4.54736446 10,4.452 C12.1741897,4.54688139 13.9489591,6.22369132 14.167,8.389 L5.834,8.389 Z"></path>
                </g>
                <g id="Shape" transform="translate(143.655000, 8.362000)" fill-rule="nonzero">
                    <path d="M10,0 C4.68,0 0.367,4.579 0.367,10.228 C0.367,15.877 4.68,20.455 10,20.455 C14.3,20.455 15.7,19.355 18.036,17.888 C18.2526889,17.6802879 18.4489235,17.4522406 18.622,17.207 C18.8396921,16.9129444 18.980611,16.5692398 19.032,16.207 C19.1203315,15.7781995 19.0555781,15.3320023 18.849,14.946 C18.6780119,14.6097971 18.4196295,14.3258528 18.101,14.124 C17.878512,13.9349293 17.6184586,13.7951889 17.338,13.714 C16.996913,13.6135185 16.634087,13.6135185 16.293,13.714 C15.975848,13.8101088 15.675098,13.9537406 15.401,14.14 C14.977,14.361 14.766,14.54 14.342,14.762 C13.742,15.081 13.366,15.171 12.742,15.481 C12.1725668,15.7025548 11.571239,15.8311937 10.961,15.862 C8.061,15.84 6.229,14.188 5.85,11.976 L17.478,11.976 C18.3931594,12.0125812 19.2131627,11.4145585 19.458,10.532 C19.4961424,10.4367182 19.5141862,10.3345832 19.511,10.232 C19.511,4.579 15.32,0 10,0 Z M5.834,8.389 C6.05198251,6.22405218 7.82619664,4.54736446 10,4.452 C12.1741897,4.54688139 13.9489591,6.22369132 14.167,8.389 L5.834,8.389 Z"></path>
                </g>
                <g id="Path" transform="translate(97.274000, 7.757000)">
                    <path d="M12,2 C11.6846317,1.57128779 11.2245448,1.27143193 10.705,1.156 C10.2633425,1.0249795 9.79550618,1.00914398 9.346,1.11 C8.88423529,1.17144527 8.4409722,1.33101999 8.046,1.578 C7.65243652,1.79808842 7.30181859,2.08739055 7.011,2.432 C6.77444577,2.68204132 6.56987849,2.9605081 6.402,3.261 L6.287,3.381 C6.17083503,1.97398722 5.0056446,0.884947369 3.594,0.864 C2.07315431,0.889742682 0.86093719,2.14314295 0.886,3.664 L0.886,18.327 C0.873697628,19.0574357 1.15211638,19.7628315 1.65998661,20.2879558 C2.16785684,20.8130801 2.86356085,21.1149014 3.594,21.127 C5.11469049,21.1012599 6.32662153,19.8476925 6.301,18.327 L6.309,9.449 C6.431,9.149 6.459,8.967 6.609,8.682 C6.80497443,8.27555817 7.08198032,7.91347676 7.423,7.618 C7.84627286,7.27280806 8.3214764,6.99673101 8.831,6.8 C9.54,6.443 9.994,6.361 10.705,6.009 C11.247,5.74 11.686,5.731 12.063,5.258 C12.2680582,5.00477542 12.4056671,4.70375614 12.463,4.383 C12.5650118,3.98273071 12.5650118,3.56326929 12.463,3.163 C12.4156836,2.74084499 12.2557723,2.33916697 12,2"></path>
                </g>
                <g id="Path" transform="translate(164.096000, 7.757000)">
                    <path d="M12,2 C11.6846317,1.57128779 11.2245448,1.27143193 10.705,1.156 C10.2633425,1.0249795 9.79550618,1.00914398 9.346,1.11 C8.88229953,1.17118781 8.43702578,1.33074992 8.04,1.578 C7.64883911,1.79905749 7.30035542,2.08827525 7.011,2.432 C6.77444577,2.68204132 6.56987849,2.9605081 6.402,3.261 L6.287,3.381 C6.17083503,1.97398722 5.0056446,0.884947369 3.594,0.864 C2.07315431,0.889742682 0.86093719,2.14314295 0.886,3.664 L0.886,18.327 C0.873697628,19.0574357 1.15211638,19.7628315 1.65998661,20.2879558 C2.16785684,20.8130801 2.86356085,21.1149014 3.594,21.127 C5.11469049,21.1012599 6.32662153,19.8476925 6.301,18.327 L6.308,9.449 C6.431,9.149 6.459,8.967 6.608,8.682 C6.80397443,8.27555817 7.08098032,7.91347676 7.422,7.618 C7.84576865,7.2729934 8.3212703,6.99693922 8.831,6.8 C9.54,6.443 9.994,6.361 10.705,6.009 C11.247,5.74 11.684,5.731 12.063,5.258 C12.2676879,5.00454611 12.4052513,4.7036261 12.463,4.383 C12.5654828,3.98278993 12.5654828,3.56321007 12.463,3.163 C12.4156836,2.74084499 12.2557723,2.33916697 12,2"></path>
                </g>
                <g id="Path" transform="translate(109.828000, 0.923000)">
                    <path d="M11,8 L9.849,8 L9.849,3.33 C9.85726789,2.59560195 9.57343485,1.88800332 9.05995038,1.36289138 C8.54646591,0.837779428 7.84539908,0.538175846 7.111,0.53 C6.37660092,0.538175846 5.67553409,0.837779428 5.16204962,1.36289138 C4.64856515,1.88800332 4.36473211,2.59560195 4.373,3.33 L4.373,8 L3.283,8 C2.66478034,8.00026516 2.0719867,8.24610629 1.63502692,8.68344114 C1.19806715,9.12077598 0.952734727,9.71378034 0.953,10.332 L0.953,10.443 C0.952447409,11.7305378 1.99546253,12.7748959 3.283,12.776 L4.373,12.776 L4.373,25.161 C4.36419907,25.8955548 4.64785807,26.6034602 5.16145645,27.1286887 C5.67505484,27.6539171 6.37643227,27.9533535 7.111,27.961 C7.84556773,27.9533535 8.54694516,27.6539171 9.06054355,27.1286887 C9.57414193,26.6034602 9.85780093,25.8955548 9.849,25.161 L9.849,12.776 L11,12.776 C11.6181279,12.7754699 12.2107137,12.5293426 12.6473272,12.0917913 C13.0839407,11.6542401 13.3287961,11.0611277 13.328,10.443 L13.328,10.332 C13.3285307,9.71404551 13.083558,9.12119005 12.6469733,8.68385516 C12.2103885,8.24652028 11.6179545,8.00053021 11,8"></path>
                </g>
                <g id="Path" transform="translate(177.798000, 7.362000)">
                    <path d="M22,1 C19.7245644,0.984560422 17.5793574,2.05976642 16.23,3.892 C15.0416834,2.09386239 13.0333007,1.00861522 10.878,1 C8.97151197,1.00417354 7.16578599,1.85664333 5.951,3.326 C5.71270367,2.10604154 4.64798272,1.22281662 3.405,1.214 C2.7095111,1.21954561 2.04474376,1.50129534 1.55708684,1.99720491 C1.06942993,2.49311448 0.798874589,3.16251596 0.805,3.858 L0.805,18.88 C0.798874589,19.575484 1.06942993,20.2448855 1.55708684,20.7407951 C2.04474376,21.2367047 2.7095111,21.5184544 3.405,21.524 C4.85138603,21.5097076 6.01276367,20.3264003 6,18.88 L6,9.165 C5.91675996,7.34686575 7.31829845,5.80320697 9.136,5.711 C10.9547498,5.80160935 12.3577768,7.34592265 12.274,9.165 C12.2817318,9.40043128 12.3105132,9.63469863 12.36,9.865 L12.36,18.88 C12.3541407,19.5754049 12.6247826,20.2446529 13.1123824,20.7405044 C13.5999823,21.236356 14.2645947,21.5181897 14.96,21.524 C15.6554053,21.5181897 16.3200177,21.236356 16.8076176,20.7405044 C17.2952174,20.2446529 17.5658593,19.5754049 17.56,18.88 L17.56,9.68 C17.584938,9.50943249 17.5983019,9.33737255 17.6,9.165 C17.5161806,7.34740665 18.9168396,5.80373207 20.734,5.711 C22.2465997,5.76589771 23.5161987,6.86810451 23.783,8.358 L23.783,18.88 C23.7771407,19.5754049 24.0477826,20.2446529 24.5353824,20.7405044 C25.0229823,21.236356 25.6875947,21.5181897 26.383,21.524 C27.0784889,21.5184544 27.7432562,21.2367047 28.2309132,20.7407951 C28.7185701,20.2448855 28.9891254,19.575484 28.983,18.88 L28.983,8.506 C29.013972,8.24983738 29.0293337,7.99202799 29.029,7.734 C28.9899018,5.90890572 28.2273781,4.17409683 26.9091802,2.91122233 C25.5909822,1.64834782 23.8250934,0.960859056 22,1"></path>
                </g>
                <g id="Path" transform="translate(0.743000, 1.453000)">
                    <path d="M31,0 C29.4793095,0.0257401238 28.2673785,1.2793075 28.293,2.8 L28.293,16.8 L17.016,1.252 C16.8350737,1.00102053 16.6168939,0.779131345 16.369,0.594 C15.8980581,0.209021529 15.3082713,-0.000884626355 14.7,0 C13.1820621,0.029552496 11.9743535,1.28199112 12,2.8 L12,21.627 L0.257,21.627 L0.257,27.0410575 L14.7,27.041 C16.2184143,27.0125397 17.4267553,25.7594453 17.4,24.241 L17.4,10.381 L28.4,25.554 C28.5936157,25.8239309 28.8300691,26.0603843 29.1,26.254 C29.601244,26.7618884 30.2864357,27.045702 31,27.041 C32.5206905,27.0152599 33.7326215,25.7616925 33.707,24.241 L33.707,5.528 L55.707,5.528 L55.707,2.548 C55.7070454,1.6042471 56.0614303,0.69490887 56.7,-2.78471582e-06 L31,0 Z"></path>
                </g>
                <g id="Path" transform="translate(62.787000, 0.981000)">
                    <path d="M1,6 L50.481,6 L50.481,3.272 C50.47896,2.2047193 50.9304664,1.18683054 51.723,0.472 L0.014,0.472 C0.650530882,1.16765442 1.00245094,2.07707867 1,3.02 L1,6 Z"></path>
                </g>
                <g id="Path" transform="translate(118.880000, 1.453000)">
                    <path d="M6,0 L0.486,0 C1.27905808,0.714450278 1.73067389,1.73258576 1.728,2.8 L1.728,5.528 L4.758,5.528 L4.758,2.8 C4.75481755,1.73247876 5.20652126,0.714145104 6,0"></path>
                </g>
                <g id="Path" transform="translate(129.500000, 1.456000)">
                    <path d="M89,0 L0.234,0 C1.02674322,0.714678594 1.47829331,1.73266591 1.476,2.8 L1.476,5.524 L89,5.526 C88.99,5.514 89,0.045 89,0"></path>
                </g>
                <g id="Shape" transform="translate(56.654000, 1.203000)" fill-rule="nonzero">
                    <path d="M11,8 C9.24015779,8.01260428 7.54088851,8.64416603 6.2,9.784 L6.2,2.8 C6.21778223,1.27239213 4.99459054,0.0192136654 3.467,0 C1.93862467,0.0181191286 0.714222281,1.27162066 0.732,2.8 L0.713,24.859 C0.576533296,26.21879 1.54501831,27.4410207 2.9,27.619 C3.08726771,27.6596844 3.2783639,27.680135 3.47,27.68 C4.56056143,27.6743363 5.54328488,27.0206287 5.97,26.017 C7.34412534,27.2766838 9.13593527,27.9830772 11,28 C15.644,28 19.41,23.522 19.41,18 C19.41,12.478 15.644,8 11,8 M10,23.221 C7.749,23.221 5.924,20.898 5.924,18.033 C5.924,15.168 7.752,12.845 10,12.845 C12.248,12.845 14.08,15.168 14.08,18.033 C14.08,20.898 12.254,23.221 10,23.221"></path>
                </g>
            </g>
            <g id="Group" transform="translate(1.088000, 63.513000)" fill="#000000">
                <polygon id="Path" points="0 0 0 8.741 0.811 8.741 0.7 1.069 0.75 1.069 3.639 8.741 4.462 8.741 7.362 1.119 7.41 1.119 7.291 8.741 8.1 8.741 8.1 0.01 7.056 0.01 4.095 7.8 4.045 7.8 1.082 0"></polygon>
            </g>
            <g id="Group" transform="translate(13.171000, 62.615000)" fill="#000000" fill-rule="nonzero">
                <path d="M4,9 L3.372,8.753 L2.746,8.3 L2.255,7.674 L1.96,7.034 L1.7,5.8 L1.676,5.322 L1.836,3.882 L2.081,3.23 L2.4,2.68 L2.968,2.115 L3.681,1.7 L4.295,1.516 L4.959,1.466 L5.359,1.491 L6.517,1.883 L7.117,2.352 L7.486,2.832 L7.786,3.385 L8.086,4.798 L8.086,5.498 L7.946,6.516 L7.713,7.192 L7.369,7.792 L6.779,8.418 L6.054,8.85 L5.454,9.02 L4.775,9.084 L4,9 Z M3.767,0.861 L2.746,1.29 L2.094,1.795 L1.579,2.422 L1.049,3.6 L0.878,4.435 L0.816,5.283 L0.84,5.923 L1.161,7.362 L1.725,8.381 L2.325,9.009 L3.051,9.464 L3.851,9.733 L4.714,9.824 L5.132,9.81 L6.3,9.565 L7.074,9.172 L7.738,8.631 L8.229,7.967 L8.6,7.216 L8.823,6.416 L8.933,5.516 L8.933,4.706 L8.823,3.919 L8.6,3.136 L8.243,2.436 L7.457,1.55 L6.719,1.084 L5.419,0.751 L4.861,0.726 L3.767,0.861 Z" id="Shape"></path>
            </g>
            <g id="Group" transform="translate(26.766000, 63.237000)" fill="#000000" fill-rule="nonzero">
                <path d="M1,1 L3.766,1 L4.443,1.05 L5.069,1.283 L5.569,1.883 L5.718,2.619 L5.648,3.2 L5.388,3.692 L4.774,4.159 L3.385,4.344 L1,4.344 L1,1 Z M0.127,0.276 L0.127,9.017 L0.986,9.017 L0.986,5.045 L3.286,5.057 L4.456,5.157 L4.738,5.293 L5.156,5.711 L5.356,6.339 L5.456,7.187 L5.628,8.724 L5.751,9.024 L6.876,9.024 L6.483,8.5 L6.347,7.6 L6.174,5.94 L5.929,5.288 L5.7,5 L5.147,4.692 L5.747,4.373 L6.3,3.717 L6.533,2.894 L6.545,2.525 L6.471,1.887 L6.052,1.038 L5.684,0.693 L4.8,0.348 L3.385,0.276 L0.127,0.276 Z" id="Shape"></path>
            </g>
            <g id="Group" transform="translate(38.929000, 63.513000)" fill="#000000">
                <polygon id="Path" points="0 0 0 8.741 5.926 8.741 5.926 8 0.847 8 0.847 4.6 5.421 4.6 5.421 3.884 0.859 3.884 0.859 0.736 5.859 0.736 5.859 0"></polygon>
            </g>
            <g id="Group" transform="translate(55.573000, 63.513000)" fill="#000000">
                <polygon id="Path" points="0 0 0 0.736 2.8 0.736 2.8 8.741 3.636 8.741 3.636 0.75 6.43 0.75 6.43 0"></polygon>
            </g>
            <g id="Group" transform="translate(66.040000, 63.513000)" fill="#000000">
                <polygon id="Path" points="6 0 6 3.749 1.219 3.749 1.219 0 0.357 0 0.357 8.741 1.207 8.741 1.207 4.486 6.012 4.486 6.012 8.741 6.873 8.741 6.873 0"></polygon>
            </g>
            <g id="Group" transform="translate(77.104000, 63.372000)" fill="#000000" fill-rule="nonzero">
                <path d="M4,1 L4.048,1 L5.719,5.413 L2.363,5.413 L4,1 Z M3.6,0.14 L0.164,8.869 L1.073,8.869 L2.118,6.114 L5.966,6.114 L7,8.881 L7.909,8.881 L4.5,0.14 L3.6,0.14 Z" id="Shape"></path>
            </g>
            <g id="Group" transform="translate(89.356000, 63.513000)" fill="#000000">
                <polygon id="Path" points="6 0 6.086 7.72 6.038 7.744 0.96 0 0.026 0 0.026 8.741 0.826 8.741 0.726 1.007 0.774 0.981 5.874 8.741 6.8 8.741 6.8 0"></polygon>
            </g>
            <g id="Group" transform="translate(108.067000, 63.513000)" fill="#000000">
                <polygon id="Path" points="6 0 6 3.749 1.217 3.749 1.217 0 0.357 0 0.357 8.741 1.2 8.741 1.2 4.486 6.01 4.486 6.01 8.741 6.873 8.741 6.873 0"></polygon>
            </g>
            <g id="Group" transform="translate(120.683000, 63.513000)" fill="#000000">
                <polygon id="Path" points="0 0 0 8.741 5.926 8.741 5.926 8 0.848 8 0.848 4.6 5.421 4.6 5.421 3.884 0.859 3.884 0.859 0.736 5.859 0.736 5.859 0"></polygon>
            </g>
            <g id="Group" transform="translate(130.121000, 63.372000)" fill="#000000" fill-rule="nonzero">
                <path d="M4,1 L4.05,1 L5.723,5.413 L2.365,5.413 L4,1 Z M3.607,0.14 L0.166,8.869 L1.075,8.869 L2.12,6.114 L5.968,6.114 L7,8.881 L7.91,8.881 L4.5,0.14 L3.607,0.14 Z" id="Shape"></path>
            </g>
            <g id="Group" transform="translate(140.533000, 63.513000)" fill="#000000">
                <polygon id="Path" points="0 0 0 0.736 2.8 0.736 2.8 8.741 3.635 8.741 3.635 0.75 6.43 0.75 6.43 0"></polygon>
            </g>
            <g id="Group" transform="translate(160.000000, 61.000000)" fill="#000000">
                <g id="Path" transform="translate(0.734000, 0.999000)">
                    <path d="M2,6 C2.48,6 3.23,5.988 3.549,6.369 C3.70874301,6.66630553 3.77825099,7.00376676 3.749,7.34 C3.749,8.201 3.774,9.086 2.826,9.086 C1.732,9.086 1.892,7.954 1.855,7.192 L0.245,7.192 L0.245,7.733 C0.117127977,8.45273706 0.336714121,9.19058624 0.837315624,9.72328768 C1.33791713,10.2559891 2.06071365,10.5209508 2.787,10.438 C4.68,10.438 5.467,9.344 5.467,7.538 C5.491,6.124 4.889,5.4 4.078,5.3 L4.078,5.274 C4.978,5.139 5.278,4.168 5.278,3.368 C5.34329579,2.69735959 5.0950888,2.03417028 4.60552264,1.57119397 C4.11595647,1.10821766 3.43995349,0.897393712 2.774,1 C1.017,1 0.254,2.02 0.353,3.729 L1.964,3.729 L1.964,3.077 C1.96269357,2.86675256 2.05259825,2.66626412 2.21045972,2.52739206 C2.3683212,2.38852 2.57863413,2.32490449 2.787,2.353 C3.352,2.353 3.611,2.684 3.611,3.386 C3.68663642,3.83602444 3.47656032,4.28601701 3.083,4.517 C2.73195942,4.6213741 2.36580241,4.66566456 2,4.648 L2,6 Z"></path>
                </g>
                <g id="Shape" transform="translate(7.370000, 1.782000)" fill-rule="nonzero">
                    <path d="M0,7 C0,8.954 0.933,9.656 2.483,9.656 C4.033,9.656 4.983,8.956 4.983,7 L4.983,2.857 C4.983,0.903 4.048,0.213 2.499,0.213 C0.95,0.213 0,0.9 0,2.857 L0,7 Z M1.721,2.857 C1.671,1.836 2.028,1.567 2.47,1.567 C2.912,1.567 3.306,1.836 3.258,2.857 L3.258,7 C3.306,8.033 2.925,8.3 2.47,8.3 C2.015,8.3 1.67,8.029 1.721,7 L1.721,2.857 Z"></path>
                </g>
            </g>
            <polygon id="Path" fill="#000000" points="177.671 67.7 174.744 67.7 174.744 69.114 177.671 69.114"></polygon>
            <g id="Group" transform="translate(179.000000, 61.000000)" fill="#000000">
                <g id="Path" transform="translate(0.699000, 0.999000)">
                    <path d="M2,6 C2.479,6 3.23,5.988 3.549,6.369 C3.70874301,6.66630553 3.77825099,7.00376676 3.749,7.34 C3.749,8.201 3.773,9.086 2.826,9.086 C1.732,9.086 1.893,7.954 1.855,7.192 L0.241,7.192 L0.241,7.733 C0.113283519,8.45342552 0.333502532,9.19183633 0.834967852,9.72461861 C1.33643317,10.2574009 2.06016694,10.5218936 2.787,10.438 C4.68,10.438 5.467,9.344 5.467,7.538 C5.491,6.124 4.889,5.4 4.078,5.3 L4.078,5.274 C4.978,5.139 5.278,4.168 5.278,3.368 C5.34329579,2.69735959 5.0950888,2.03417028 4.60552264,1.57119397 C4.11595647,1.10821766 3.43995349,0.897393712 2.774,1 C1.017,1 0.254,2.02 0.353,3.729 L1.964,3.729 L1.964,3.077 C1.96269357,2.86675256 2.05259825,2.66626412 2.21045972,2.52739206 C2.3683212,2.38852 2.57863413,2.32490449 2.787,2.353 C3.352,2.353 3.611,2.684 3.611,3.386 C3.68663642,3.83602444 3.47656032,4.28601701 3.083,4.517 C2.73195942,4.6213741 2.36580241,4.66566456 2,4.648 L2,6 Z"></path>
                </g>
                <g id="Shape" transform="translate(7.334000, 1.782000)" fill-rule="nonzero">
                    <path d="M0,7 C0,8.954 0.933,9.656 2.483,9.656 C4.033,9.656 4.983,8.956 4.983,7 L4.983,2.857 C4.983,0.903 4.048,0.213 2.499,0.213 C0.95,0.213 0,0.9 0,2.857 L0,7 Z M1.721,2.857 C1.671,1.836 2.028,1.567 2.47,1.567 C2.912,1.567 3.306,1.836 3.258,2.857 L3.258,7 C3.306,8.033 2.925,8.3 2.47,8.3 C2.015,8.3 1.67,8.029 1.721,7 L1.721,2.857 Z"></path>
                </g>
                <g id="Shape" transform="translate(13.481000, 1.782000)" fill-rule="nonzero">
                    <path d="M0,7 C0,8.954 0.933,9.656 2.482,9.656 C4.031,9.656 4.982,8.956 4.982,7 L4.982,2.857 C4.982,0.903 4.047,0.213 2.498,0.213 C0.949,0.213 0,0.9 0,2.857 L0,7 Z M1.721,2.857 C1.671,1.836 2.028,1.567 2.47,1.567 C2.912,1.567 3.306,1.836 3.258,2.857 L3.258,7 C3.306,8.033 2.925,8.3 2.47,8.3 C2.015,8.3 1.67,8.029 1.721,7 L1.721,2.857 Z"></path>
                </g>
                <g id="Shape" transform="translate(19.628000, 1.782000)" fill-rule="nonzero">
                    <path d="M0,7 C0,8.954 0.933,9.656 2.483,9.656 C4.033,9.656 4.983,8.956 4.983,7 L4.983,2.857 C4.983,0.903 4.048,0.213 2.5,0.213 C0.952,0.213 0,0.9 0,2.857 L0,7 Z M1.721,2.857 C1.671,1.836 2.028,1.567 2.47,1.567 C2.912,1.567 3.306,1.836 3.258,2.857 L3.258,7 C3.306,8.033 2.925,8.3 2.47,8.3 C2.015,8.3 1.67,8.029 1.721,7 L1.721,2.857 Z"></path>
                </g>
                <g id="Shape" transform="translate(28.843000, 1.877000)" fill-rule="nonzero">
                    <path d="M1,2 C0.999199376,1.76822149 1.09091878,1.54570504 1.25481191,1.38181191 C1.41870504,1.21791878 1.64122149,1.12619938 1.873,1.127 C2.10494218,1.12566003 2.32777254,1.2172062 2.49178317,1.38121683 C2.6557938,1.54522746 2.74733997,1.76805782 2.746,2 C2.75031142,2.23074535 2.66137602,2.45347695 2.49931917,2.61779244 C2.33726231,2.78210793 2.11578292,2.87411745 1.885,2.873 C1.65131356,2.87648443 1.42600913,2.78601618 1.25962532,2.62188842 C1.09324151,2.45776067 0.999706005,2.23371223 1,2 M3.718,2 C3.71090937,0.984148988 2.88885471,0.162539879 1.873,0.156 C1.38369659,0.155202004 0.914204184,0.349223751 0.568213968,0.695213968 C0.222223751,1.04120418 0.0282020043,1.51069659 0.029,2 C0.0282020043,2.48930341 0.222223751,2.95879582 0.568213968,3.30478603 C0.914204184,3.65077625 1.38369659,3.844798 1.873,3.844 C2.89066349,3.84180217 3.71525044,3.01766215 3.718,2"></path>
                </g>
                <g id="Path" transform="translate(33.733000, 0.970000)">
                    <path d="M4,7 C3.962,7.59 4.074,9.115 3.127,9.115 C1.946,9.115 1.885,7.873 1.885,7.115 L1.885,4.554 C1.885,3.84 1.775,2.231 3.127,2.231 C3.976,2.231 3.914,3.337 3.988,3.931 L5.688,3.931 C5.69430003,3.69702276 5.68159161,3.46292026 5.65,3.231 C5.6769389,2.56552391 5.41496111,1.92087616 4.93144115,1.46284497 C4.44792119,1.00481378 3.79004396,0.778096687 3.127,0.841 C0.373,0.841 0.19,2.586 0.116,4.934 L0.116,6.25 C0.116,8.709 0.3,10.5 3.127,10.5 C5.045,10.5 5.611,9.213 5.7,7.528 C5.709,7.357 5.721,7.172 5.733,7 L4,7 Z"></path>
                </g>
            </g>
        </g>
    </g>
</svg>
